# xmcd
#
# Track frame offsets: 
#        150
#        47612
#        59792
#        82600
#        100955
#        109797
#        195250
#
# Disc length: 2685 seconds
#
# Revision: 1
# Processed by: cddbd v1.5.2PL0 Copyright (c) Steve Scherf et al.
# Submitted via: ExactAudioCopy v0.99pb3
#
DISCID=500a7b07
DTITLE=Peter de Havilland - Bois de Boulogne
DYEAR=1987
DGENRE=New Age
TTITLE0=Escher
TTITLE1=Shaku (Cause)
TTITLE2=Myoho
TTITLE3=Shaku
TTITLE4=Shaku (Chant)
TTITLE5=Bois de Boulogne:  Theme and Improvisations
TTITLE6=Shaku (Effect)
EXTD=YEAR: 1988
EXTT0=
EXTT1=
EXTT2=
EXTT3=
EXTT4=
EXTT5=
EXTT6=
PLAYORDER=
